<svg width="163" height="125" viewBox="0 0 163 125" fill="none" xmlns="http://www.w3.org/2000/svg">
<path d="M18.144 11.346L4.746 11.346L4.746 36H0L0 6.6L18.144 6.6L18.144 11.346ZM39.5696 6.6L39.5696 36H34.7816L34.7816 11.388L25.5416 11.388V11.64C25.5416 15.56 25.3316 18.892 24.9116 21.636C24.5196 24.352 23.8896 26.718 23.0216 28.734C22.3496 30.33 21.5656 31.632 20.6696 32.64C19.7736 33.648 18.8216 34.432 17.8136 34.992C16.8336 35.552 15.8396 35.93 14.8316 36.126C13.8516 36.35 12.9136 36.462 12.0176 36.462V31.674C13.0256 31.674 14.0476 31.478 15.0836 31.086C16.1196 30.694 17.0576 29.812 17.8976 28.44C18.7376 27.04 19.4236 25.024 19.9556 22.392C20.4876 19.732 20.7536 16.148 20.7536 11.64L20.7536 6.6L39.5696 6.6ZM64.9819 36H60.0679L58.5979 30.372L48.0979 30.372L46.6279 36H41.6719L49.5679 6.6L57.1279 6.6L64.9819 36ZM57.2959 25.626L53.3479 10.926L49.3999 25.626L57.2959 25.626ZM84.8676 20.166C85.9036 20.978 86.7296 21.986 87.3456 23.19C87.9616 24.394 88.2696 25.71 88.2696 27.138C88.2696 28.37 88.0316 29.532 87.5556 30.624C87.1076 31.688 86.4776 32.626 85.6656 33.438C84.8536 34.222 83.9156 34.852 82.8516 35.328C81.7876 35.776 80.6396 36 79.4076 36H67.1016V6.6L78.5676 6.6C79.7156 6.6 80.7936 6.824 81.8016 7.272C82.8096 7.692 83.6776 8.28 84.4056 9.036C85.1616 9.764 85.7496 10.632 86.1696 11.64C86.6176 12.62 86.8416 13.684 86.8416 14.832C86.8416 15.84 86.6596 16.806 86.2956 17.73C85.9596 18.626 85.4836 19.438 84.8676 20.166ZM71.8476 11.346V18.276L78.5676 18.276C79.5476 18.276 80.3736 17.954 81.0456 17.31C81.7456 16.638 82.0956 15.812 82.0956 14.832C82.0956 13.852 81.7456 13.026 81.0456 12.354C80.3736 11.682 79.5476 11.346 78.5676 11.346H71.8476ZM79.4076 31.254C79.9676 31.254 80.4996 31.156 81.0036 30.96C81.5076 30.736 81.9416 30.442 82.3056 30.078C82.6976 29.686 82.9916 29.238 83.1876 28.734C83.4116 28.23 83.5236 27.698 83.5236 27.138C83.5236 26.578 83.4116 26.046 83.1876 25.542C82.9916 25.038 82.6976 24.604 82.3056 24.24C81.9416 23.848 81.5076 23.554 81.0036 23.358C80.5276 23.134 80.0096 23.022 79.4496 23.022L71.8476 23.022V31.254L79.4076 31.254ZM113.079 6.6V36L108.291 36V23.694L95.1454 23.694V36H90.3574V6.6L95.1454 6.6V18.906L108.291 18.906V6.6H113.079ZM138.482 36H133.568L132.098 30.372H121.598L120.128 36H115.172L123.068 6.6L130.628 6.6L138.482 36ZM130.796 25.626L126.848 10.926L122.9 25.626H130.796ZM160.846 6.6V36H156.058V26.718H150.892H150.85L146.02 36H140.602L146.062 25.458C144.494 24.618 143.234 23.428 142.282 21.888C141.33 20.32 140.854 18.57 140.854 16.638C140.854 15.238 141.12 13.936 141.652 12.732C142.184 11.5 142.898 10.436 143.794 9.54C144.69 8.644 145.754 7.93 146.986 7.398C148.218 6.866 149.52 6.6 150.892 6.6L160.846 6.6ZM150.892 21.93H156.058V11.388H150.892C150.164 11.388 149.478 11.528 148.834 11.808C148.218 12.088 147.672 12.466 147.196 12.942C146.72 13.418 146.342 13.978 146.062 14.622C145.782 15.238 145.642 15.91 145.642 16.638C145.642 17.366 145.782 18.052 146.062 18.696C146.342 19.34 146.72 19.9 147.196 20.376C147.672 20.852 148.218 21.23 148.834 21.51C149.478 21.79 150.164 21.93 150.892 21.93Z" fill="#49ACF3"/>
<path d="M31.5 114.5L10.5 93.5L31.5 72.5L34.2563 75.2563L17.9812 91.5312H52.5V95.4688H17.9812L34.2563 111.744L31.5 114.5Z" fill="#49ACF3"/>
</svg>
