<svg width="388" height="89" viewBox="0 0 388 89" fill="none" xmlns="http://www.w3.org/2000/svg">
<rect width="388" height="89" rx="44.5" fill="#49ACF3"/>
<path d="M34.24 35.72C34.928 35.72 35.568 35.848 36.16 36.104C36.768 36.36 37.288 36.712 37.72 37.16C38.168 37.592 38.52 38.104 38.776 38.696C39.032 39.288 39.16 39.92 39.16 40.592C39.16 41.232 39.048 41.832 38.824 42.392C38.6 42.952 38.288 43.456 37.888 43.904C38.448 44.4 38.896 45 39.232 45.704C39.568 46.408 39.736 47.168 39.736 47.984C39.736 48.736 39.592 49.448 39.304 50.12C39.016 50.776 38.616 51.352 38.104 51.848C37.608 52.344 37.024 52.736 36.352 53.024C35.696 53.312 34.992 53.456 34.24 53.456C33.36 53.456 32.536 53.296 31.768 52.976C31.016 52.64 30.36 52.192 29.8 51.632C29.24 51.072 28.8 50.416 28.48 49.664C28.16 48.912 28 48.112 28 47.264H30.76C30.76 47.728 30.848 48.168 31.024 48.584C31.216 49 31.472 49.368 31.792 49.688C32.112 49.992 32.48 50.24 32.896 50.432C33.328 50.608 33.776 50.696 34.24 50.696C34.624 50.696 34.976 50.624 35.296 50.48C35.632 50.336 35.92 50.144 36.16 49.904C36.416 49.648 36.616 49.36 36.76 49.04C36.904 48.704 36.976 48.352 36.976 47.984C36.976 47.632 36.904 47.296 36.76 46.976C36.616 46.64 36.416 46.352 36.16 46.112C35.92 45.856 35.632 45.656 35.296 45.512C34.976 45.352 34.624 45.272 34.24 45.272V42.728C34.512 42.728 34.776 42.672 35.032 42.56C35.288 42.448 35.52 42.296 35.728 42.104C35.936 41.912 36.096 41.688 36.208 41.432C36.336 41.16 36.4 40.88 36.4 40.592C36.4 40 36.192 39.496 35.776 39.08C35.376 38.664 34.864 38.456 34.24 38.456C33.856 38.456 33.496 38.536 33.16 38.696C32.824 38.84 32.528 39.04 32.272 39.296C32.032 39.552 31.832 39.848 31.672 40.184C31.528 40.52 31.456 40.872 31.456 41.24H28.696C28.696 40.488 28.84 39.784 29.128 39.128C29.432 38.456 29.832 37.872 30.328 37.376C30.84 36.864 31.432 36.464 32.104 36.176C32.776 35.872 33.488 35.72 34.24 35.72ZM53.0622 53H50.2542L49.4142 49.784H43.4142L42.5742 53H39.7422L44.2542 36.2H48.5742L53.0622 53ZM48.6702 47.072L46.4142 38.672L44.1582 47.072H48.6702ZM67.2574 36.2V53H64.5214V38.936H57.0094V53H54.2734V36.2H67.2574ZM82.5171 53H79.8051V40.424L71.6451 53H68.4531V36.2H71.1651V48.752L79.3011 36.2H82.5171V53ZM89.8549 53.456C89.0069 53.456 88.2069 53.296 87.4549 52.976C86.7189 52.656 86.0709 52.224 85.5109 51.68C84.9509 51.12 84.5109 50.472 84.1909 49.736C83.8709 48.984 83.7109 48.184 83.7109 47.336V41.84C83.7109 40.992 83.8709 40.2 84.1909 39.464C84.5109 38.728 84.9509 38.08 85.5109 37.52C86.0709 36.96 86.7189 36.52 87.4549 36.2C88.2069 35.88 89.0069 35.72 89.8549 35.72C90.7029 35.72 91.4949 35.88 92.2309 36.2C92.9829 36.52 93.6309 36.96 94.1749 37.52C94.7349 38.08 95.1749 38.728 95.4949 39.464C95.8149 40.2 95.9749 40.992 95.9749 41.84H93.2149C93.2149 41.376 93.1269 40.944 92.9509 40.544C92.7749 40.128 92.5349 39.768 92.2309 39.464C91.9269 39.16 91.5669 38.92 91.1509 38.744C90.7509 38.568 90.3189 38.48 89.8549 38.48C89.3909 38.48 88.9509 38.568 88.5349 38.744C88.1189 38.92 87.7589 39.16 87.4549 39.464C87.1509 39.768 86.9109 40.128 86.7349 40.544C86.5589 40.944 86.4709 41.376 86.4709 41.84V47.336C86.4709 47.8 86.5589 48.24 86.7349 48.656C86.9109 49.056 87.1509 49.408 87.4549 49.712C87.7589 50.016 88.1189 50.256 88.5349 50.432C88.9509 50.608 89.3909 50.696 89.8549 50.696C90.3189 50.696 90.7509 50.608 91.1509 50.432C91.5669 50.256 91.9269 50.016 92.2309 49.712C92.5349 49.408 92.7749 49.056 92.9509 48.656C93.1269 48.24 93.2149 47.8 93.2149 47.336H95.9749C95.9749 48.184 95.8149 48.984 95.4949 49.736C95.1749 50.472 94.7349 51.12 94.1749 51.68C93.6309 52.224 92.9829 52.656 92.2309 52.976C91.4949 53.296 90.7029 53.456 89.8549 53.456ZM109.711 53H106.903L106.063 49.784H100.063L99.2226 53H96.3906L100.903 36.2H105.223L109.711 53ZM105.319 47.072L103.063 38.672L100.807 47.072H105.319ZM122.567 38.912H117.503V53H114.767V38.912H109.703V36.2H122.567V38.912ZM129.142 40.52C130.006 40.52 130.814 40.688 131.566 41.024C132.334 41.344 132.998 41.792 133.558 42.368C134.118 42.928 134.558 43.584 134.878 44.336C135.214 45.088 135.382 45.896 135.382 46.76C135.382 47.624 135.214 48.432 134.878 49.184C134.558 49.936 134.118 50.6 133.558 51.176C132.998 51.736 132.334 52.184 131.566 52.52C130.814 52.84 130.006 53 129.142 53H123.766V36.2H126.478V40.52H129.142ZM129.142 50.288C129.622 50.288 130.078 50.2 130.51 50.024C130.942 49.832 131.318 49.576 131.638 49.256C131.958 48.936 132.206 48.56 132.382 48.128C132.574 47.696 132.67 47.24 132.67 46.76C132.67 46.28 132.574 45.824 132.382 45.392C132.206 44.96 131.958 44.584 131.638 44.264C131.318 43.944 130.942 43.696 130.51 43.52C130.078 43.328 129.622 43.232 129.142 43.232H126.478V50.288H129.142ZM142.73 53.456C141.882 53.456 141.082 53.296 140.33 52.976C139.594 52.656 138.946 52.224 138.386 51.68C137.826 51.12 137.386 50.472 137.066 49.736C136.746 48.984 136.586 48.184 136.586 47.336V41.84C136.586 40.992 136.746 40.2 137.066 39.464C137.386 38.728 137.826 38.08 138.386 37.52C138.946 36.96 139.594 36.52 140.33 36.2C141.082 35.88 141.882 35.72 142.73 35.72C143.578 35.72 144.37 35.88 145.106 36.2C145.858 36.52 146.506 36.96 147.05 37.52C147.61 38.08 148.05 38.728 148.37 39.464C148.69 40.2 148.85 40.992 148.85 41.84H146.09C146.09 41.376 146.002 40.944 145.826 40.544C145.65 40.128 145.41 39.768 145.106 39.464C144.802 39.16 144.442 38.92 144.026 38.744C143.626 38.568 143.194 38.48 142.73 38.48C142.266 38.48 141.826 38.568 141.41 38.744C140.994 38.92 140.634 39.16 140.33 39.464C140.026 39.768 139.786 40.128 139.61 40.544C139.434 40.944 139.346 41.376 139.346 41.84V47.336C139.346 47.8 139.434 48.24 139.61 48.656C139.786 49.056 140.026 49.408 140.33 49.712C140.634 50.016 140.994 50.256 141.41 50.432C141.826 50.608 142.266 50.696 142.73 50.696C143.194 50.696 143.626 50.608 144.026 50.432C144.442 50.256 144.802 50.016 145.106 49.712C145.41 49.408 145.65 49.056 145.826 48.656C146.002 48.24 146.09 47.8 146.09 47.336H148.85C148.85 48.184 148.69 48.984 148.37 49.736C148.05 50.472 147.61 51.12 147.05 51.68C146.506 52.224 145.858 52.656 145.106 52.976C144.37 53.296 143.578 53.456 142.73 53.456ZM161.607 36.2V53H158.871V47.696H155.919H155.895L153.135 53H150.039L153.159 46.976C152.263 46.496 151.543 45.816 150.999 44.936C150.455 44.04 150.183 43.04 150.183 41.936C150.183 41.136 150.335 40.392 150.639 39.704C150.943 39 151.351 38.392 151.863 37.88C152.375 37.368 152.983 36.96 153.687 36.656C154.391 36.352 155.135 36.2 155.919 36.2H161.607ZM155.919 44.96H158.871V38.936H155.919C155.503 38.936 155.111 39.016 154.743 39.176C154.391 39.336 154.079 39.552 153.807 39.824C153.535 40.096 153.319 40.416 153.159 40.784C152.999 41.136 152.919 41.52 152.919 41.936C152.919 42.352 152.999 42.744 153.159 43.112C153.319 43.48 153.535 43.8 153.807 44.072C154.079 44.344 154.391 44.56 154.743 44.72C155.111 44.88 155.503 44.96 155.919 44.96ZM184.093 36.2V53H181.357V45.968H173.845V53H171.109V36.2H173.845V43.232H181.357V36.2H184.093ZM198.609 53H195.801L194.961 49.784H188.961L188.121 53H185.289L189.801 36.2H194.121L198.609 53ZM194.217 47.072L191.961 38.672L189.705 47.072H194.217ZM225.469 36.224V53H222.733V42.704L218.389 53H215.221L210.781 42.488V53H208.117V36.2H211.093L216.805 49.712L222.493 36.2L225.469 36.224ZM240 53H237.192L236.352 49.784H230.352L229.512 53H226.68L231.192 36.2H235.512L240 53ZM235.608 47.072L233.352 38.672L231.096 47.072H235.608ZM246.136 53.456C245.288 53.456 244.488 53.296 243.736 52.976C243 52.656 242.352 52.224 241.792 51.68C241.232 51.12 240.792 50.472 240.472 49.736C240.152 48.984 239.992 48.184 239.992 47.336V41.84C239.992 40.992 240.152 40.2 240.472 39.464C240.792 38.728 241.232 38.08 241.792 37.52C242.352 36.96 243 36.52 243.736 36.2C244.488 35.88 245.288 35.72 246.136 35.72C246.984 35.72 247.776 35.88 248.512 36.2C249.264 36.52 249.912 36.96 250.456 37.52C251.016 38.08 251.456 38.728 251.776 39.464C252.096 40.2 252.256 40.992 252.256 41.84H249.496C249.496 41.376 249.408 40.944 249.232 40.544C249.056 40.128 248.816 39.768 248.512 39.464C248.208 39.16 247.848 38.92 247.432 38.744C247.032 38.568 246.6 38.48 246.136 38.48C245.672 38.48 245.232 38.568 244.816 38.744C244.4 38.92 244.04 39.16 243.736 39.464C243.432 39.768 243.192 40.128 243.016 40.544C242.84 40.944 242.752 41.376 242.752 41.84V47.336C242.752 47.8 242.84 48.24 243.016 48.656C243.192 49.056 243.432 49.408 243.736 49.712C244.04 50.016 244.4 50.256 244.816 50.432C245.232 50.608 245.672 50.696 246.136 50.696C246.6 50.696 247.032 50.608 247.432 50.432C247.848 50.256 248.208 50.016 248.512 49.712C248.816 49.408 249.056 49.056 249.232 48.656C249.408 48.24 249.496 47.8 249.496 47.336H252.256C252.256 48.184 252.096 48.984 251.776 49.736C251.456 50.472 251.016 51.12 250.456 51.68C249.912 52.224 249.264 52.656 248.512 52.976C247.776 53.296 246.984 53.456 246.136 53.456ZM265.583 38.912H260.519V53H257.783V38.912H252.719V36.2H265.583V38.912ZM269.493 38.912V43.232H277.389V45.968H269.493V50.288H277.389V53H266.781V36.2H277.389V38.912H269.493ZM283.97 36.2C284.754 36.2 285.482 36.352 286.154 36.656C286.842 36.944 287.442 37.344 287.954 37.856C288.466 38.352 288.866 38.944 289.154 39.632C289.458 40.32 289.61 41.048 289.61 41.816C289.61 42.584 289.458 43.312 289.154 44C288.866 44.688 288.466 45.288 287.954 45.8C287.442 46.296 286.842 46.696 286.154 47C285.482 47.288 284.754 47.432 283.97 47.432H281.306V53H278.594V36.2H283.97ZM283.97 44.72C284.37 44.72 284.746 44.648 285.098 44.504C285.466 44.344 285.778 44.136 286.034 43.88C286.306 43.608 286.514 43.296 286.658 42.944C286.818 42.592 286.898 42.216 286.898 41.816C286.898 41.416 286.818 41.04 286.658 40.688C286.514 40.336 286.306 40.032 286.034 39.776C285.778 39.504 285.474 39.296 285.122 39.152C284.77 38.992 284.386 38.912 283.97 38.912H281.306V44.72H283.97ZM290.805 36.2H293.541V43.712L300.069 36.2H303.717L296.325 44.696L303.525 53H299.901L293.541 45.68V53H290.805V36.2ZM320.658 36.2V53H317.922V38.936H312.642V39.08C312.642 41.32 312.522 43.224 312.282 44.792C312.058 46.344 311.698 47.696 311.202 48.848C310.818 49.76 310.37 50.504 309.858 51.08C309.346 51.656 308.802 52.104 308.226 52.424C307.666 52.744 307.098 52.96 306.522 53.072C305.962 53.2 305.426 53.264 304.914 53.264V50.528C305.49 50.528 306.074 50.416 306.666 50.192C307.258 49.968 307.794 49.464 308.274 48.68C308.754 47.88 309.146 46.728 309.45 45.224C309.754 43.704 309.906 41.656 309.906 39.08V36.2H320.658ZM335.179 53H332.371L331.531 49.784H325.531L324.691 53H321.859L326.371 36.2H330.691L335.179 53ZM330.787 47.072L328.531 38.672L326.275 47.072H330.787ZM341.316 53.456C340.468 53.456 339.668 53.296 338.916 52.976C338.18 52.656 337.532 52.224 336.972 51.68C336.412 51.12 335.972 50.472 335.652 49.736C335.332 48.984 335.172 48.184 335.172 47.336V41.84C335.172 40.992 335.332 40.2 335.652 39.464C335.972 38.728 336.412 38.08 336.972 37.52C337.532 36.96 338.18 36.52 338.916 36.2C339.668 35.88 340.468 35.72 341.316 35.72C342.164 35.72 342.956 35.88 343.692 36.2C344.444 36.52 345.092 36.96 345.636 37.52C346.196 38.08 346.636 38.728 346.956 39.464C347.276 40.2 347.436 40.992 347.436 41.84H344.676C344.676 41.376 344.588 40.944 344.412 40.544C344.236 40.128 343.996 39.768 343.692 39.464C343.388 39.16 343.028 38.92 342.612 38.744C342.212 38.568 341.78 38.48 341.316 38.48C340.852 38.48 340.412 38.568 339.996 38.744C339.58 38.92 339.22 39.16 338.916 39.464C338.612 39.768 338.372 40.128 338.196 40.544C338.02 40.944 337.932 41.376 337.932 41.84V47.336C337.932 47.8 338.02 48.24 338.196 48.656C338.372 49.056 338.612 49.408 338.916 49.712C339.22 50.016 339.58 50.256 339.996 50.432C340.412 50.608 340.852 50.696 341.316 50.696C341.78 50.696 342.212 50.608 342.612 50.432C343.028 50.256 343.388 50.016 343.692 49.712C343.996 49.408 344.236 49.056 344.412 48.656C344.588 48.24 344.676 47.8 344.676 47.336H347.436C347.436 48.184 347.276 48.984 346.956 49.736C346.636 50.472 346.196 51.12 345.636 51.68C345.092 52.224 344.444 52.656 343.692 52.976C342.956 53.296 342.164 53.456 341.316 53.456ZM354.769 53.456C353.921 53.456 353.121 53.296 352.369 52.976C351.633 52.656 350.985 52.224 350.425 51.68C349.865 51.12 349.425 50.472 349.105 49.736C348.785 48.984 348.625 48.184 348.625 47.336V41.84C348.625 40.992 348.785 40.2 349.105 39.464C349.425 38.728 349.865 38.08 350.425 37.52C350.985 36.96 351.633 36.52 352.369 36.2C353.121 35.88 353.921 35.72 354.769 35.72C355.617 35.72 356.409 35.88 357.145 36.2C357.897 36.52 358.545 36.96 359.089 37.52C359.649 38.08 360.089 38.728 360.409 39.464C360.729 40.2 360.889 40.992 360.889 41.84H358.129C358.129 41.376 358.041 40.944 357.865 40.544C357.689 40.128 357.449 39.768 357.145 39.464C356.841 39.16 356.481 38.92 356.065 38.744C355.665 38.568 355.233 38.48 354.769 38.48C354.305 38.48 353.865 38.568 353.449 38.744C353.033 38.92 352.673 39.16 352.369 39.464C352.065 39.768 351.825 40.128 351.649 40.544C351.473 40.944 351.385 41.376 351.385 41.84V47.336C351.385 47.8 351.473 48.24 351.649 48.656C351.825 49.056 352.065 49.408 352.369 49.712C352.673 50.016 353.033 50.256 353.449 50.432C353.865 50.608 354.305 50.696 354.769 50.696C355.233 50.696 355.665 50.608 356.065 50.432C356.481 50.256 356.841 50.016 357.145 49.712C357.449 49.408 357.689 49.056 357.865 48.656C358.041 48.24 358.129 47.8 358.129 47.336H360.889C360.889 48.184 360.729 48.984 360.409 49.736C360.089 50.472 359.649 51.12 359.089 51.68C358.545 52.224 357.897 52.656 357.145 52.976C356.409 53.296 355.617 53.456 354.769 53.456Z" fill="#FDFAFA"/>
</svg>
